<svg id="Layer_1" data-name="Layer 1" xmlns="http://www.w3.org/2000/svg" viewBox="0 0 288 72"><defs><style>.cls-1{fill:#ffa519;}</style></defs><path class="cls-1" d="M89.3,17.09v4.73h6.49v3.47H89.3v7.92h-4V13.59H97.47v3.5Z"/><path class="cls-1" d="M108.43,20l-.85,3.56a3.86,3.86,0,0,0-1.91-.49c-1.91,0-3.22,1.77-3.22,5.55v4.56H98.72V19.94h3.7v2.82c.74-2.22,2.25-3.16,3.91-3.16A4.63,4.63,0,0,1,108.43,20Z"/><path class="cls-1" d="M109.5,15.33a2.37,2.37,0,1,1,2.36,2.25A2.32,2.32,0,0,1,109.5,15.33Zm.51,4.61h3.73V33.21H110Z"/><path class="cls-1" d="M130,27.77H120a3.23,3.23,0,0,0,3.45,2.39,4.59,4.59,0,0,0,3.47-1.48l2.2,2.2a7.44,7.44,0,0,1-5.93,2.59,6.7,6.7,0,0,1-7.06-6.89,6.8,6.8,0,0,1,7.06-7,6.63,6.63,0,0,1,6.9,6.75C130,26.72,130,27.17,130,27.77Zm-3.68-2.42a2.81,2.81,0,0,0-3.1-2.5,3.06,3.06,0,0,0-3.25,2.5Z"/><path class="cls-1" d="M145.38,25.92v7.29h-3.73V26.32c0-2.11-1.25-3.05-2.53-3.05a2.83,2.83,0,0,0-3,3.13v6.81H132.4V19.94h3.73v2.22c.57-1.79,2.67-2.56,4-2.56C143.59,19.6,145.41,21.93,145.38,25.92Z"/><path class="cls-1" d="M162.18,12.85V33.21h-3.73V31.56a5.42,5.42,0,0,1-4.27,1.91,6.56,6.56,0,0,1-6.52-6.92,6.56,6.56,0,0,1,6.52-6.92,5.26,5.26,0,0,1,4.27,1.9V12.85Zm-3.84,13.7a3.43,3.43,0,0,0-3.45-3.42,3.4,3.4,0,0,0-3.45,3.42,3.45,3.45,0,0,0,6.9,0Z"/><path class="cls-1" d="M164.66,28.94h3.5a1.74,1.74,0,0,0,2,1.59c1.08,0,1.91-.45,1.91-1.22,0-.57-.46-.85-1.46-1.11l-1.76-.43C165.4,26.86,165,25,165,23.56c0-2,2.13-4,5.21-4,2.42,0,5.27,1.19,5.24,4.33h-3.56c0-.89-.74-1.37-1.63-1.37s-1.53.43-1.53,1.11.57.94,1.31,1.14l2.19.57c3.19.85,3.59,2.85,3.59,3.93,0,2.79-2.85,4.16-5.58,4.16S164.69,31.87,164.66,28.94Z"/><path class="cls-1" d="M183.88,26.55A7.15,7.15,0,1,1,191,33.47,6.91,6.91,0,0,1,183.88,26.55Zm10.51,0a3.36,3.36,0,1,0-6.72,0,3.36,3.36,0,1,0,6.72,0Z"/><path class="cls-1" d="M205.47,19.09v.85h2.91v2.88h-2.91V33.21h-3.73V22.82h-2.5V19.94h2.5v-.83c0-4,2-6.26,5.84-6.26h1.6v3.47h-.86C206.19,16.32,205.5,17.49,205.47,19.09Z"/><path class="cls-1" d="M84.15,49a10,10,0,0,1,10-10,9.75,9.75,0,0,1,8,4.07l-3,2.19a5.78,5.78,0,0,0-4.84-2.53,6.32,6.32,0,0,0,0,12.64A5.75,5.75,0,0,0,99.1,52.8l3,2.22a9.83,9.83,0,0,1-8,4.07A10,10,0,0,1,84.15,49Z"/><path class="cls-1" d="M103.48,52.17a7.15,7.15,0,1,1,7.15,6.92A6.92,6.92,0,0,1,103.48,52.17Zm10.51,0a3.36,3.36,0,1,0-3.36,3.45A3.32,3.32,0,0,0,114,52.17Z"/><path class="cls-1" d="M120.2,38.48h3.73V58.84H120.2Z"/><path class="cls-1" d="M140,45.57V58.84h-3.73V56.67c-.57,1.74-2.68,2.48-4,2.48-3.47,0-5.29-2.31-5.27-6.29V45.57h3.74v6.89c0,2.08,1.25,3,2.53,3a2.82,2.82,0,0,0,3-3.11v-6.8Z"/><path class="cls-1" d="M164.45,51.55v7.29h-3.76v-7c0-2.08-1.08-2.93-2.39-2.93-1.48,0-2.53.91-2.62,2.9v7H152v-7c0-2.08-1.08-2.9-2.33-2.9s-2.71.63-2.71,3v6.92h-3.73V45.57h3.73v2.36a3.79,3.79,0,0,1,3.76-2.71,4.49,4.49,0,0,1,4.27,2.57,5.06,5.06,0,0,1,4.44-2.57C162.72,45.22,164.45,47.56,164.45,51.55Z"/><path class="cls-1" d="M182.08,52.17a6.56,6.56,0,0,1-6.52,6.92,5.3,5.3,0,0,1-4.27-1.9v1.65h-3.73V38.48h3.73v8.68a5.28,5.28,0,0,1,4.27-1.91A6.56,6.56,0,0,1,182.08,52.17Zm-3.81,0a3.37,3.37,0,0,0-3.42-3.41,3.43,3.43,0,1,0,3.42,3.41Z"/><path class="cls-1" d="M184,41a2.37,2.37,0,1,1,2.36,2.25A2.29,2.29,0,0,1,184,41Zm.51,4.62h3.73V58.84h-3.73Z"/><path class="cls-1" d="M205.06,45.57V58.84h-3.73V57.19a5.43,5.43,0,0,1-4.28,1.9,6.56,6.56,0,0,1-6.52-6.92,6.57,6.57,0,0,1,6.52-6.92,5.26,5.26,0,0,1,4.28,1.91V45.57Zm-3.85,6.6a3.45,3.45,0,1,0-3.44,3.45A3.42,3.42,0,0,0,201.21,52.17Z"/><path class="cls-1" d="M214.19,53.06h4a3,3,0,0,0,3.22,2.59c1.77,0,2.93-.91,2.93-2.31,0-1.08-.8-1.85-2.48-2.36l-2.39-.69c-4.3-1.14-5.07-3.73-5.07-5.49,0-3.51,3-5.84,6.78-5.84s6.55,2.25,6.55,6h-4a2.72,2.72,0,0,0-5.38-.23c0,.49.14,1.51,2.19,2.08l2.2.63c3,.82,5.55,2.39,5.55,5.72,0,3.9-3.33,6-7,6C217.07,59.09,214.19,56.53,214.19,53.06Z"/><path class="cls-1" d="M230.14,52.17a7.15,7.15,0,1,1,7.15,6.92A6.92,6.92,0,0,1,230.14,52.17Zm10.51,0a3.36,3.36,0,1,0-3.36,3.45A3.32,3.32,0,0,0,240.65,52.17Z"/><path class="cls-1" d="M246.85,38.48h3.73V58.84h-3.73Z"/><path class="cls-1" d="M267.56,45.57V58.84h-3.73V57.19a5.41,5.41,0,0,1-4.27,1.9A6.57,6.57,0,0,1,253,52.17a6.57,6.57,0,0,1,6.53-6.92,5.26,5.26,0,0,1,4.27,1.91V45.57Zm-3.85,6.6a3.45,3.45,0,1,0-3.44,3.45A3.42,3.42,0,0,0,263.71,52.17Z"/><path class="cls-1" d="M280.48,45.65l-.85,3.56a3.83,3.83,0,0,0-1.91-.48c-1.91,0-3.22,1.76-3.22,5.55v4.56h-3.73V45.57h3.7v2.82c.74-2.23,2.25-3.17,3.91-3.17A4.76,4.76,0,0,1,280.48,45.65Z"/><path class="cls-1" d="M36,19.69A16.31,16.31,0,1,1,19.69,36,16.33,16.33,0,0,1,36,19.69m0-5.44A21.75,21.75,0,1,0,57.75,36,21.75,21.75,0,0,0,36,14.25Z"/><path class="cls-1" d="M36,11.53s-5-.18-8.17-3.36S24.47,0,24.47,0s5,.18,8.17,3.36S36,11.53,36,11.53Z"/><path class="cls-1" d="M47.53,0s-.18,5-3.36,8.17S36,11.53,36,11.53s.18-5,3.36-8.17S47.53,0,47.53,0Z"/><path class="cls-1" d="M53.3,18.7s-3.4-3.65-3.4-8.16,3.4-8.15,3.4-8.15S56.7,6,56.7,10.54,53.3,18.7,53.3,18.7Z"/><path class="cls-1" d="M69.61,18.7S66,22.1,61.46,22.1s-8.16-3.4-8.16-3.4,3.65-3.4,8.16-3.4S69.61,18.7,69.61,18.7Z"/><path class="cls-1" d="M60.47,36s.18-5,3.36-8.17S72,24.47,72,24.47s-.18,5-3.36,8.17S60.47,36,60.47,36Z"/><path class="cls-1" d="M72,47.53s-5-.18-8.17-3.36S60.47,36,60.47,36s5,.18,8.17,3.36S72,47.53,72,47.53Z"/><path class="cls-1" d="M53.3,53.3s3.65-3.4,8.16-3.4,8.15,3.4,8.15,3.4S66,56.7,61.46,56.7,53.3,53.3,53.3,53.3Z"/><path class="cls-1" d="M53.3,69.61S49.9,66,49.9,61.46s3.4-8.16,3.4-8.16,3.4,3.65,3.4,8.16S53.3,69.61,53.3,69.61Z"/><path class="cls-1" d="M36,60.47s5,.18,8.17,3.36S47.53,72,47.53,72s-5-.18-8.17-3.36S36,60.47,36,60.47Z"/><path class="cls-1" d="M24.47,72s.18-5,3.36-8.17S36,60.47,36,60.47s-.18,5-3.36,8.17S24.47,72,24.47,72Z"/><path class="cls-1" d="M18.7,53.3s3.4,3.65,3.4,8.16-3.4,8.15-3.4,8.15S15.3,66,15.3,61.46,18.7,53.3,18.7,53.3Z"/><path class="cls-1" d="M2.39,53.3S6,49.9,10.54,49.9s8.16,3.4,8.16,3.4-3.65,3.4-8.16,3.4S2.39,53.3,2.39,53.3Z"/><path class="cls-1" d="M11.53,36s-.18,5-3.36,8.17S0,47.53,0,47.53s.18-5,3.36-8.17S11.53,36,11.53,36Z"/><path class="cls-1" d="M0,24.47s5,.18,8.17,3.36S11.53,36,11.53,36s-5-.18-8.17-3.36S0,24.47,0,24.47Z"/><path class="cls-1" d="M18.7,18.7s-3.65,3.4-8.16,3.4-8.15-3.4-8.15-3.4S6,15.3,10.54,15.3,18.7,18.7,18.7,18.7Z"/><path class="cls-1" d="M18.7,2.39S22.1,6,22.1,10.54s-3.4,8.16-3.4,8.16-3.4-3.65-3.4-8.16S18.7,2.39,18.7,2.39Z"/></svg>